<?xml version="1.0" standalone="no"?>
<!DOCTYPE svg PUBLIC "-//W3C//DTD SVG 20010904//EN"
 "http://www.w3.org/TR/2001/REC-SVG-20010904/DTD/svg10.dtd">
<svg width="38" height="38" viewBox="0 0 38 38" fill="none" xmlns="http://www.w3.org/2000/svg">
<path d="M21.3515 15.4209H21.3508C20.7808 15.4209 20.3187 15.883 20.3187 16.453V21.7229C20.3187 22.2928 20.7808 22.7549 21.3508 22.7549H21.3515C21.9215 22.7549 22.3835 22.2928 22.3835 21.7229V16.453C22.3835 15.883 21.9215 15.4209 21.3515 15.4209Z" fill="white"/>
<path d="M28.2784 20.1484C27.5859 18.4865 26.3148 17.1319 24.7003 16.3352V19.9836C25.0552 20.3679 25.3403 20.8112 25.5428 21.2935C25.8313 21.9824 25.9454 22.7319 25.875 23.4755C25.8047 24.2191 25.5521 24.9338 25.1395 25.5565C24.7269 26.1791 24.1672 26.6904 23.5098 27.045C22.8525 27.3996 22.1178 27.5867 21.3709 27.5896C20.624 27.5924 19.8879 27.4111 19.2278 27.0615C18.5678 26.712 18.0041 26.2051 17.5867 25.5856C17.1693 24.9662 16.9112 24.2534 16.8351 23.5104C16.759 22.7674 16.8674 22.017 17.1505 21.3259C17.353 20.8327 17.6415 20.3793 18.0026 19.987V16.3386C16.6938 16.9924 15.6047 18.0145 14.8692 19.2792C14.1337 20.5438 13.784 21.9959 13.863 23.4568C13.942 24.9176 14.4464 26.3235 15.3141 27.5015C16.1817 28.6794 17.3748 29.578 18.7464 30.0868C20.1181 30.5955 21.6086 30.6921 23.0345 30.3648C24.4604 30.0375 25.7596 29.3004 26.772 28.2444C27.7845 27.1883 28.4662 25.8594 28.7332 24.421C29.0003 22.9825 28.841 21.4974 28.2749 20.1484H28.2784Z" fill="white"/>
<path d="M18.5082 3.84516L7.60483 9.61416C5.42834 10.7741 3.79928 12.7482 3.07346 15.1052C2.34765 17.4623 2.58406 20.0108 3.73106 22.1941L8.01464 30.2896C9.04424 32.2198 10.7186 33.7275 12.7459 34.5497C14.7731 35.3719 17.0247 35.4565 19.1079 34.7888C16.5834 34.3034 14.2718 33.0464 12.4922 31.1911C10.7126 29.3359 9.55271 26.974 9.17272 24.4315C8.79273 21.889 9.21135 19.2912 10.3708 16.9967C11.5302 14.7023 13.3733 12.8243 15.6456 11.622C17.9179 10.4197 20.5073 9.9524 23.0566 10.2846C25.6058 10.6168 27.989 11.7321 29.8773 13.4766C31.7656 15.2211 33.0658 17.5087 33.5985 20.0237C34.1312 22.5387 33.87 25.157 32.8511 27.5172C34.5752 26.1705 35.772 24.2614 36.2326 22.1227C36.6933 19.984 36.3886 17.7515 35.3718 15.8144L31.0882 7.71893C29.9284 5.54232 27.9543 3.91316 25.5972 3.18733C23.2401 2.4615 20.6915 2.69799 18.5082 3.84516Z" fill="url(#paint0_linear_3340_3432)"/>
<defs>
<linearGradient id="paint0_linear_3340_3432" x1="33.1464" y1="25.0524" x2="15.949" y2="-3.08884" gradientUnits="userSpaceOnUse">
<stop stop-color="#76FFF4"/>
<stop offset="1" stop-color="#0091BF"/>
</linearGradient>
</defs>
</svg>


